<?xml version="1.0" standalone="no"?>
<!DOCTYPE svg PUBLIC "-//W3C//DTD SVG 20010904//EN"
 "http://www.w3.org/TR/2001/REC-SVG-20010904/DTD/svg10.dtd">
<svg version="1.0" xmlns="http://www.w3.org/2000/svg"
 width="512.000000pt" height="512.000000pt" viewBox="0 0 512.000000 512.000000"
 preserveAspectRatio="xMidYMid meet">
<metadata>
Created by potrace 1.11, written by Peter Selinger 2001-2013
</metadata>
<g transform="translate(0.000000,512.000000) scale(0.100000,-0.100000)"
fill="#000000" stroke="none">
<path d="M834 5105 c-156 -42 -284 -178 -314 -333 -5 -27 -9 -552 -9 -1237 0
-1015 3 -1198 15 -1245 39 -146 128 -245 273 -302 55 -22 62 -22 674 -24 340
0 620 -4 624 -7 3 -4 -11 -64 -31 -134 -21 -71 -47 -163 -58 -205 l-20 -78
-62 -1 c-33 0 -97 -1 -141 -2 l-80 -2 0 -85 0 -85 855 0 855 0 0 85 0 85 -55
2 c-30 1 -93 2 -140 2 l-85 1 -58 203 c-31 111 -57 207 -57 212 0 7 205 10
597 9 329 0 618 3 642 8 167 31 307 173 340 343 6 31 10 509 10 1235 -1 1274
1 1234 -52 1340 -28 58 -120 151 -177 180 -98 50 -51 49 -1830 49 -1381 0
-1674 -3 -1716 -14z"/>
<path d="M819 1183 c-15 -6 -32 -20 -38 -32 -16 -30 -15 -1091 2 -1112 30 -39
17 -39 1271 -39 l1215 0 28 24 28 24 3 533 c2 369 -1 542 -8 560 -23 56 36 53
-1267 54 -898 0 -1213 -3 -1234 -12z"/>
<path d="M3866 1188 c-178 -23 -328 -169 -361 -353 -6 -37 -7 -403 0 -465 16
-155 142 -304 295 -349 223 -66 457 56 530 277 16 48 19 91 19 298 1 260 -6
301 -60 393 -84 139 -256 220 -423 199z"/>
</g>
</svg>
